# xmcd
#
# Track frame offsets: 
#        150
#        18290
#        34335
#        51895
#        70697
#        89687
#        106252
#        124535
#        140010
#        159757
#        180492
#        200225
#        224227
#        243550
#        260455
#        279445
#        296572
#        315545
#
# Disc length: 4473 seconds
#
# Revision: 0
# Processed by: cddbd v1.5.2PL0 Copyright (c) Steve Scherf et al.
# Submitted via: ExactAudioCopy v0.99pb4
#
DISCID=11117712
DTITLE=孫燕姿 - My Story
DYEAR=2006
DGENRE=Pop
TTITLE0=雨天
TTITLE1=我要的幸福
TTITLE2=天黑黑
TTITLE3=第六感
TTITLE4=The Moment
TTITLE5=奔
TTITLE6=害怕
TTITLE7=太陽底下
TTITLE8=懂事
TTITLE9=風箏
TTITLE10=神奇
TTITLE11=我不難過
TTITLE12=我也很想他
TTITLE13=夢不落
TTITLE14=Silent All These Years
TTITLE15=任性
TTITLE16=第一天
TTITLE17=我不愛
EXTD=
EXTT0=
EXTT1=
EXTT2=
EXTT3=
EXTT4=
EXTT5=
EXTT6=
EXTT7=
EXTT8=
EXTT9=
EXTT10=
EXTT11=
EXTT12=
EXTT13=
EXTT14=
EXTT15=
EXTT16=
EXTT17=
PLAYORDER=
